# xmcd
#
# Track frame offsets: 
#        150
#        5418
#        19791
#        33060
#        47438
#        57785
#        70092
#        79326
#        93788
#        107833
#        119540
#        129229
#        142826
#        156812
#        167728
#        180880
#
# Disc length: 2513 seconds
#
# Revision: 0
# Processed by: cddbd v1.5.2PL0 Copyright (c) Steve Scherf et al.
# Submitted via: ExactAudioCopy v0.99pb4
#
DISCID=b809cf10
DTITLE=The New Kentucky Colonels - Live In Holland 1973
DYEAR=1973
DGENRE=Bluegrass
TTITLE0=Fire On The Mountain
TTITLE1=Never Ending Song Of Love
TTITLE2=Dixie Breakdown
TTITLE3=The Fields Have Turned Brown
TTITLE4=Take A Whiff On Me
TTITLE5=Is This My Destiny
TTITLE6=Mocking Banjo
TTITLE7=If You're Ever Gonna Love Me
TTITLE8=Last Thing On My Mind
TTITLE9=Dark Hollow
TTITLE10=Soldier's Joy/Black Mountain Rag
TTITLE11=Why You Been Gone So Long
TTITLE12=Sweet Baby's Arms/Will You Be Lovin Another Man
TTITLE13=I Know What It Means To Be Lonesome
TTITLE14=Working On A Building
TTITLE15=Rawhide
EXTD=
EXTT0=
EXTT1=
EXTT2=
EXTT3=
EXTT4=
EXTT5=
EXTT6=
EXTT7=
EXTT8=
EXTT9=
EXTT10=
EXTT11=
EXTT12=
EXTT13=
EXTT14=
EXTT15=
PLAYORDER=
